<svg width="513" height="181" viewBox="0 0 513 181" fill="none" xmlns="http://www.w3.org/2000/svg">
<rect x="22.4774" y="2.20825" width="156.045" height="157.921" rx="46" transform="rotate(8.18286 22.4774 2.20825)" fill="#FBD8DC"/>
<rect x="15.2966" y="17.4164" width="146.663" height="147.202" rx="44" transform="rotate(0.38314 15.2966 17.4164)" fill="#E20613"/>
<path d="M55.766 121.5H63.766" stroke="#FFF9F9" stroke-width="5" stroke-linecap="round"/>
<path d="M105 100H113" stroke="#FFF9F9" stroke-width="5" stroke-linecap="round"/>
<path d="M67 61H75" stroke="#FFF9F9" stroke-width="5" stroke-linecap="round"/>
<path d="M75.766 121.5L122.766 121.5" stroke="#FFF9F9" stroke-width="5" stroke-linecap="round"/>
<path d="M46 100L93 100" stroke="#FFF9F9" stroke-width="5" stroke-linecap="round"/>
<path d="M59 81L116 81" stroke="#FFF9F9" stroke-width="5" stroke-linecap="round"/>
<path d="M86.766 61H127.766" stroke="#FFF9F9" stroke-width="5" stroke-linecap="round"/>
<path d="M226.004 100.879C222.098 100.879 218.468 100.049 215.115 98.3887C211.795 96.7285 209.028 94.401 206.814 91.4062C203.266 86.849 201.492 81.543 201.492 75.4883C201.492 69.043 203.494 63.4115 207.498 58.5938C209.744 55.8919 212.479 53.8086 215.701 52.3438C218.924 50.8464 222.358 50.0977 226.004 50.0977C231.993 50.0977 237.267 52.0671 241.824 56.0059C245.535 59.1634 247.993 62.9557 249.197 67.3828L240.018 70.8984C239.139 67.5456 237.413 64.9251 234.842 63.0371C232.303 61.1491 229.389 60.2051 226.102 60.2051C221.609 60.2051 217.947 61.8978 215.115 65.2832C212.837 68.0827 211.697 71.4193 211.697 75.293C211.697 79.0039 212.771 82.2754 214.92 85.1074C217.622 88.623 221.349 90.3809 226.102 90.3809C228.803 90.3809 231.261 89.7135 233.475 88.3789C235.721 87.0443 237.56 85.1237 238.992 82.6172L248.221 87.4023C242.492 96.3867 235.086 100.879 226.004 100.879ZM295.193 97.5098C291.45 99.7559 287.299 100.879 282.742 100.879C278.185 100.879 274.018 99.7559 270.242 97.5098C266.499 95.2637 263.553 92.2038 261.404 88.3301C259.288 84.4564 258.23 80.1758 258.23 75.4883C258.23 68.3268 260.574 62.3047 265.262 57.4219C269.982 52.5391 275.809 50.0977 282.742 50.0977C287.299 50.0977 291.45 51.2207 295.193 53.4668C298.969 55.7129 301.915 58.7728 304.031 62.6465C306.18 66.5202 307.254 70.8008 307.254 75.4883C307.254 80.1758 306.18 84.4564 304.031 88.3301C301.915 92.2038 298.969 95.2637 295.193 97.5098ZM282.84 90.3809C286.876 90.3809 290.262 88.9323 292.996 86.0352C295.763 83.138 297.146 79.5573 297.146 75.293C297.146 71.0286 295.763 67.4479 292.996 64.5508C290.262 61.6536 286.876 60.2051 282.84 60.2051C278.706 60.2051 275.271 61.6536 272.537 64.5508C269.803 67.4154 268.436 70.9961 268.436 75.293C268.436 79.5898 269.803 83.1868 272.537 86.084C275.271 88.9486 278.706 90.3809 282.84 90.3809ZM341.238 100.781C336.486 100.781 332.189 99.6094 328.348 97.2656C324.507 94.8893 321.528 91.6829 319.412 87.6465C317.296 83.5775 316.238 79.1016 316.238 74.2188C316.238 69.987 317.247 66.0482 319.266 62.4023C321.316 58.724 324.279 55.7454 328.152 53.4668C332.026 51.1556 336.388 50 341.238 50C347.033 50 351.997 51.8066 356.131 55.4199V29.9805H366.824V100H356.229V95.4102C352.029 98.9909 347.033 100.781 341.238 100.781ZM341.434 90.1855C345.21 90.1855 348.432 88.916 351.102 86.377C353.771 83.8379 355.285 80.6478 355.643 76.8066V73.4863C355.285 69.7103 353.771 66.5527 351.102 64.0137C348.432 61.4746 345.21 60.2051 341.434 60.2051C337.299 60.2051 333.865 61.6536 331.131 64.5508C328.396 67.4154 327.029 70.931 327.029 75.0977C327.029 79.3294 328.38 82.9102 331.082 85.8398C333.816 88.737 337.267 90.1855 341.434 90.1855ZM399.295 100.781C392.654 100.781 387.055 98.3398 382.498 93.457C377.973 88.5742 375.711 82.5846 375.711 75.4883C375.711 70.8008 376.736 66.5202 378.787 62.6465C380.838 58.7402 383.67 55.6641 387.283 53.418C390.896 51.1719 394.9 50.0326 399.295 50C404.568 50 409.109 51.6927 412.918 55.0781V50H422.928V100H412.918V95.7031C409.109 99.0885 404.568 100.781 399.295 100.781ZM389.432 86.5723C392.036 89.5345 395.291 91.0156 399.197 91.0156C403.104 91.0156 406.342 89.5345 408.914 86.5723C411.518 83.5775 412.82 79.8828 412.82 75.4883C412.82 71.0612 411.518 67.3828 408.914 64.4531C406.342 61.4909 403.104 60.0098 399.197 60.0098C395.291 60.0098 392.036 61.4909 389.432 64.4531C386.827 67.4154 385.525 71.0938 385.525 75.4883C385.525 79.8828 386.827 83.5775 389.432 86.5723ZM452.371 50.0977C453.836 50.0977 456.033 50.2279 458.963 50.4883L456.863 60.4004C454.096 60.14 452.599 60.0098 452.371 60.0098C449.148 60.0098 446.609 60.9375 444.754 62.793C442.833 64.6159 441.873 68.1803 441.873 73.4863V100.684H431.766V72.7051C431.766 65.153 433.605 59.4889 437.283 55.7129C441.32 51.9694 446.349 50.0977 452.371 50.0977ZM483.035 120.02H472.098L480.105 100.098L463.504 50H474.49L486.209 85.3027L497.928 50H508.816L483.035 120.02Z" fill="#E20613"/>
<path d="M212.84 128.176C212.059 128.176 211.333 128.01 210.662 127.678C209.998 127.346 209.438 126.88 208.982 126.281C208.273 125.37 207.918 124.302 207.918 123.078C207.918 121.789 208.318 120.663 209.119 119.699C209.581 119.165 210.132 118.752 210.77 118.459C211.414 118.166 212.104 118.02 212.84 118.02C213.413 118.02 213.973 118.124 214.52 118.332C215.073 118.534 215.561 118.817 215.984 119.182C216.316 119.455 216.609 119.79 216.863 120.188C217.124 120.578 217.316 120.975 217.439 121.379L215.779 122.023C215.584 121.34 215.219 120.803 214.686 120.412C214.152 120.015 213.543 119.816 212.859 119.816C212.384 119.816 211.941 119.914 211.531 120.109C211.121 120.298 210.776 120.568 210.496 120.92C210.008 121.486 209.764 122.193 209.764 123.039C209.764 123.84 209.988 124.546 210.438 125.158C210.724 125.523 211.076 125.806 211.492 126.008C211.915 126.203 212.371 126.301 212.859 126.301C213.979 126.301 214.881 125.773 215.564 124.719L217.176 125.559C216.076 127.303 214.63 128.176 212.84 128.176ZM224.012 128.156C223.139 128.156 222.342 127.932 221.619 127.482C220.896 127.033 220.327 126.421 219.91 125.646C219.493 124.872 219.285 124.022 219.285 123.098C219.285 122.154 219.493 121.294 219.91 120.52C220.327 119.738 220.896 119.126 221.619 118.684C222.342 118.234 223.139 118.007 224.012 118C225.151 118 226.131 118.42 226.951 119.26V118H228.709V128H226.951V126.896C226.131 127.736 225.151 128.156 224.012 128.156ZM223.982 126.398C224.822 126.398 225.522 126.086 226.082 125.461C226.648 124.829 226.932 124.042 226.932 123.098C226.932 122.141 226.652 121.35 226.092 120.725C225.532 120.093 224.829 119.777 223.982 119.777C223.143 119.777 222.443 120.096 221.883 120.734C221.323 121.366 221.043 122.154 221.043 123.098C221.043 124.035 221.323 124.82 221.883 125.451C222.449 126.083 223.149 126.398 223.982 126.398ZM236.014 128.117C234.979 128.117 234.093 127.844 233.357 127.297C232.381 126.581 231.893 125.347 231.893 123.596V119.777H230.418V118.02H231.893V113.996H233.699V118H236.375V119.777H233.699V123.459C233.699 124.559 233.911 125.321 234.334 125.744C234.744 126.154 235.304 126.359 236.014 126.359C236.046 126.359 236.447 126.327 237.215 126.262V128.02C236.564 128.085 236.163 128.117 236.014 128.117ZM243.875 128.176C242.482 128.176 241.313 127.684 240.369 126.701C239.425 125.712 238.953 124.504 238.953 123.078C238.953 122.141 239.165 121.288 239.588 120.52C240.018 119.745 240.61 119.136 241.365 118.693C242.12 118.244 242.957 118.02 243.875 118.02C244.78 118.02 245.607 118.244 246.355 118.693C247.104 119.143 247.69 119.755 248.113 120.529C248.543 121.298 248.758 122.147 248.758 123.078C248.758 124.016 248.543 124.875 248.113 125.656C247.69 126.431 247.104 127.046 246.355 127.502C245.607 127.951 244.78 128.176 243.875 128.176ZM243.895 126.301C244.76 126.301 245.486 125.988 246.072 125.363C246.658 124.732 246.951 123.957 246.951 123.039C246.951 122.134 246.658 121.372 246.072 120.754C245.486 120.129 244.76 119.816 243.895 119.816C243.003 119.816 242.264 120.126 241.678 120.744C241.092 121.363 240.799 122.128 240.799 123.039C240.799 123.97 241.092 124.748 241.678 125.373C242.264 125.992 243.003 126.301 243.895 126.301ZM263.074 128.156C262.13 128.156 261.277 127.922 260.516 127.453C259.754 126.984 259.158 126.346 258.729 125.539C258.305 124.732 258.094 123.84 258.094 122.863C258.094 122.01 258.299 121.216 258.709 120.48C259.119 119.745 259.708 119.149 260.477 118.693C261.245 118.231 262.111 118 263.074 118C263.693 118 264.279 118.117 264.832 118.352C265.392 118.579 265.874 118.902 266.277 119.318V113.996H268.172V128H266.297V126.818C265.405 127.71 264.331 128.156 263.074 128.156ZM263.113 126.262C263.927 126.262 264.62 125.988 265.193 125.441C265.773 124.895 266.102 124.208 266.18 123.381V122.658C266.102 121.851 265.773 121.177 265.193 120.637C264.62 120.09 263.927 119.816 263.113 119.816C262.234 119.816 261.499 120.129 260.906 120.754C260.314 121.379 260.018 122.134 260.018 123.02C260.018 123.924 260.314 124.693 260.906 125.324C261.499 125.949 262.234 126.262 263.113 126.262ZM274.891 128.156C273.517 128.156 272.358 127.661 271.414 126.672C270.477 125.676 270.008 124.465 270.008 123.039C270.008 121.62 270.477 120.425 271.414 119.455C272.352 118.485 273.51 118 274.891 118C275.841 118 276.701 118.244 277.469 118.732C278.237 119.221 278.826 119.891 279.236 120.744C279.646 121.597 279.812 122.528 279.734 123.537H271.854C271.886 124.305 272.189 124.979 272.762 125.559C273.335 126.132 274.051 126.418 274.91 126.418C275.542 126.418 276.108 126.255 276.609 125.93C277.117 125.598 277.511 125.181 277.791 124.68L279.051 125.842C278.621 126.623 278.035 127.206 277.293 127.59C276.551 127.967 275.75 128.156 274.891 128.156ZM272.049 121.916H277.732C277.615 121.285 277.283 120.767 276.736 120.363C276.189 119.96 275.581 119.758 274.91 119.758C274.214 119.758 273.582 119.963 273.016 120.373C272.449 120.777 272.127 121.291 272.049 121.916ZM284.412 124.963L286.971 118H288.875L285.135 128.137H283.709L279.949 118H281.873L284.412 124.963ZM293.953 128.156C292.579 128.156 291.421 127.661 290.477 126.672C289.539 125.676 289.07 124.465 289.07 123.039C289.07 121.62 289.539 120.425 290.477 119.455C291.414 118.485 292.573 118 293.953 118C294.904 118 295.763 118.244 296.531 118.732C297.299 119.221 297.889 119.891 298.299 120.744C298.709 121.597 298.875 122.528 298.797 123.537H290.916C290.949 124.305 291.251 124.979 291.824 125.559C292.397 126.132 293.113 126.418 293.973 126.418C294.604 126.418 295.171 126.255 295.672 125.93C296.18 125.598 296.574 125.181 296.854 124.68L298.113 125.842C297.684 126.623 297.098 127.206 296.355 127.59C295.613 127.967 294.812 128.156 293.953 128.156ZM291.111 121.916H296.795C296.678 121.285 296.346 120.767 295.799 120.363C295.252 119.96 294.643 119.758 293.973 119.758C293.276 119.758 292.645 119.963 292.078 120.373C291.512 120.777 291.189 121.291 291.111 121.916ZM302.479 128H300.652V113.996H302.479V128ZM309.227 128.176C307.833 128.176 306.665 127.684 305.721 126.701C304.777 125.712 304.305 124.504 304.305 123.078C304.305 122.141 304.516 121.288 304.939 120.52C305.369 119.745 305.962 119.136 306.717 118.693C307.472 118.244 308.309 118.02 309.227 118.02C310.132 118.02 310.958 118.244 311.707 118.693C312.456 119.143 313.042 119.755 313.465 120.529C313.895 121.298 314.109 122.147 314.109 123.078C314.109 124.016 313.895 124.875 313.465 125.656C313.042 126.431 312.456 127.046 311.707 127.502C310.958 127.951 310.132 128.176 309.227 128.176ZM309.246 126.301C310.112 126.301 310.838 125.988 311.424 125.363C312.01 124.732 312.303 123.957 312.303 123.039C312.303 122.134 312.01 121.372 311.424 120.754C310.838 120.129 310.112 119.816 309.246 119.816C308.354 119.816 307.615 120.126 307.029 120.744C306.443 121.363 306.15 122.128 306.15 123.039C306.15 123.97 306.443 124.748 307.029 125.373C307.615 125.992 308.354 126.301 309.246 126.301ZM320.643 128.156C320.076 128.156 319.539 128.046 319.031 127.824C318.53 127.596 318.094 127.287 317.723 126.896V132.004H315.945V118H317.723V119.26C318.517 118.42 319.49 118 320.643 118C321.984 118.013 323.107 118.508 324.012 119.484C324.917 120.454 325.369 121.659 325.369 123.098C325.369 124.022 325.161 124.872 324.744 125.646C324.327 126.421 323.758 127.033 323.035 127.482C322.312 127.932 321.515 128.156 320.643 128.156ZM318.582 125.461C319.135 126.086 319.832 126.398 320.672 126.398C321.512 126.398 322.215 126.086 322.781 125.461C323.348 124.829 323.631 124.042 323.631 123.098C323.631 122.154 323.348 121.366 322.781 120.734C322.215 120.096 321.512 119.777 320.672 119.777C319.832 119.777 319.135 120.09 318.582 120.715C318.029 121.34 317.752 122.134 317.752 123.098C317.752 124.042 318.029 124.829 318.582 125.461ZM332.215 128.156C330.841 128.156 329.682 127.661 328.738 126.672C327.801 125.676 327.332 124.465 327.332 123.039C327.332 121.62 327.801 120.425 328.738 119.455C329.676 118.485 330.835 118 332.215 118C333.165 118 334.025 118.244 334.793 118.732C335.561 119.221 336.15 119.891 336.561 120.744C336.971 121.597 337.137 122.528 337.059 123.537H329.178C329.21 124.305 329.513 124.979 330.086 125.559C330.659 126.132 331.375 126.418 332.234 126.418C332.866 126.418 333.432 126.255 333.934 125.93C334.441 125.598 334.835 125.181 335.115 124.68L336.375 125.842C335.945 126.623 335.359 127.206 334.617 127.59C333.875 127.967 333.074 128.156 332.215 128.156ZM329.373 121.916H335.057C334.939 121.285 334.607 120.767 334.061 120.363C333.514 119.96 332.905 119.758 332.234 119.758C331.538 119.758 330.906 119.963 330.34 120.373C329.773 120.777 329.451 121.291 329.373 121.916ZM343.035 118.02C343.315 118.02 343.722 118.046 344.256 118.098L343.875 119.855C343.387 119.803 343.107 119.777 343.035 119.777C342.339 119.777 341.779 119.979 341.355 120.383C340.945 120.773 340.74 121.538 340.74 122.678V128.117H338.914V122.521C338.914 121.024 339.282 119.898 340.018 119.143C340.786 118.394 341.792 118.02 343.035 118.02ZM358.523 128.176C357.742 128.176 357.016 128.01 356.346 127.678C355.682 127.346 355.122 126.88 354.666 126.281C353.956 125.37 353.602 124.302 353.602 123.078C353.602 121.789 354.002 120.663 354.803 119.699C355.265 119.165 355.815 118.752 356.453 118.459C357.098 118.166 357.788 118.02 358.523 118.02C359.096 118.02 359.656 118.124 360.203 118.332C360.757 118.534 361.245 118.817 361.668 119.182C362 119.455 362.293 119.79 362.547 120.188C362.807 120.578 362.999 120.975 363.123 121.379L361.463 122.023C361.268 121.34 360.903 120.803 360.369 120.412C359.835 120.015 359.227 119.816 358.543 119.816C358.068 119.816 357.625 119.914 357.215 120.109C356.805 120.298 356.46 120.568 356.18 120.92C355.691 121.486 355.447 122.193 355.447 123.039C355.447 123.84 355.672 124.546 356.121 125.158C356.408 125.523 356.759 125.806 357.176 126.008C357.599 126.203 358.055 126.301 358.543 126.301C359.663 126.301 360.564 125.773 361.248 124.719L362.859 125.559C361.759 127.303 360.314 128.176 358.523 128.176ZM366.795 128H364.969V113.996H366.795V128ZM372.605 128.156C371.29 128.156 370.298 127.717 369.627 126.838C368.969 126.024 368.641 124.872 368.641 123.381L368.621 118H370.467V123.381C370.467 124.462 370.665 125.249 371.062 125.744C371.219 125.939 371.44 126.099 371.727 126.223C372.02 126.34 372.312 126.398 372.605 126.398C373.341 126.398 373.875 126.174 374.207 125.725C374.565 125.223 374.744 124.442 374.744 123.381V118H376.541V123.381C376.541 124.859 376.248 126.005 375.662 126.818C374.939 127.73 373.921 128.176 372.605 128.156ZM383.084 128.156C382.518 128.156 381.98 128.046 381.473 127.824C380.971 127.596 380.535 127.287 380.164 126.896V128H378.387V113.996H380.164V119.26C380.958 118.42 381.932 118 383.084 118C384.425 118.013 385.548 118.508 386.453 119.484C387.358 120.454 387.811 121.659 387.811 123.098C387.811 124.022 387.602 124.872 387.186 125.646C386.769 126.421 386.199 127.033 385.477 127.482C384.754 127.932 383.956 128.156 383.084 128.156ZM381.023 125.461C381.577 126.086 382.273 126.398 383.113 126.398C383.953 126.398 384.656 126.086 385.223 125.461C385.789 124.829 386.072 124.042 386.072 123.098C386.072 122.154 385.789 121.366 385.223 120.734C384.656 120.096 383.953 119.777 383.113 119.777C382.273 119.777 381.577 120.09 381.023 120.715C380.47 121.34 380.193 122.134 380.193 123.098C380.193 124.042 380.47 124.829 381.023 125.461Z" fill="#020202"/>
</svg>
